<?xml version="1.0" standalone="no"?>
<!DOCTYPE svg PUBLIC "-//W3C//DTD SVG 20010904//EN"
 "http://www.w3.org/TR/2001/REC-SVG-20010904/DTD/svg10.dtd">
<svg version="1.0" xmlns="http://www.w3.org/2000/svg"
 width="54.000000pt" height="53.000000pt" viewBox="0 0 54.000000 53.000000"
 preserveAspectRatio="xMidYMid meet">

<g transform="translate(0.000000,53.000000) scale(0.100000,-0.100000)"
fill="#000000" stroke="none">
<path d="M197 506 c-148 -41 -222 -218 -149 -357 96 -184 355 -178 449 10 24
49 24 163 0 212 -55 111 -181 168 -300 135z m89 -213 l29 -78 3 78 c3 69 5 77
22 77 19 0 20 -7 20 -106 l0 -105 -32 3 c-30 3 -34 8 -58 75 -14 40 -28 73
-32 73 -5 0 -8 -34 -8 -75 0 -60 -3 -75 -15 -75 -12 0 -15 18 -15 105 l0 105
29 0 c27 0 31 -5 57 -77z m-119 -109 c7 -18 -14 -35 -34 -27 -7 3 -13 14 -13
24 0 24 38 26 47 3z"/>
</g>
</svg>
